<svg xmlns="http://www.w3.org/2000/svg" viewBox="0 0 400 300" fill="none">
  <rect width="400" height="300" fill="#744210"/>
  <!-- Neural network nodes -->
  <!-- Input layer -->
  <circle cx="80" cy="80" r="15" fill="#d69e2e"/>
  <circle cx="80" cy="150" r="15" fill="#d69e2e"/>
  <circle cx="80" cy="220" r="15" fill="#d69e2e"/>
  
  <!-- Hidden layer -->
  <circle cx="200" cy="60" r="18" fill="#ecc94b"/>
  <circle cx="200" cy="120" r="18" fill="#ecc94b"/>
  <circle cx="200" cy="180" r="18" fill="#ecc94b"/>
  <circle cx="200" cy="240" r="18" fill="#ecc94b"/>
  
  <!-- Output layer -->
  <circle cx="320" cy="100" r="20" fill="#f6e05e"/>
  <circle cx="320" cy="200" r="20" fill="#f6e05e"/>
  
  <!-- Connections -->
  <g stroke="#d69e2e" stroke-width="1.5" opacity="0.6">
    <line x1="95" y1="80" x2="182" y2="60"/>
    <line x1="95" y1="80" x2="182" y2="120"/>
    <line x1="95" y1="80" x2="182" y2="180"/>
    <line x1="95" y1="80" x2="182" y2="240"/>
    
    <line x1="95" y1="150" x2="182" y2="60"/>
    <line x1="95" y1="150" x2="182" y2="120"/>
    <line x1="95" y1="150" x2="182" y2="180"/>
    <line x1="95" y1="150" x2="182" y2="240"/>
    
    <line x1="95" y1="220" x2="182" y2="60"/>
    <line x1="95" y1="220" x2="182" y2="120"/>
    <line x1="95" y1="220" x2="182" y2="180"/>
    <line x1="95" y1="220" x2="182" y2="240"/>
    
    <line x1="218" y1="60" x2="300" y2="100"/>
    <line x1="218" y1="60" x2="300" y2="200"/>
    <line x1="218" y1="120" x2="300" y2="100"/>
    <line x1="218" y1="120" x2="300" y2="200"/>
    <line x1="218" y1="180" x2="300" y2="100"/>
    <line x1="218" y1="180" x2="300" y2="200"/>
    <line x1="218" y1="240" x2="300" y2="100"/>
    <line x1="218" y1="240" x2="300" y2="200"/>
  </g>
  
  <!-- AI text -->
  <text x="200" y="290" font-family="system-ui" font-size="20" fill="#faf089" text-anchor="middle" font-weight="600">Artificial Intelligence</text>
</svg>

